<?xml version="1.0" encoding="UTF-8"?> <svg xmlns="http://www.w3.org/2000/svg" id="Layer_1" viewBox="0 0 1770.58 578.58"><defs><style>.cls-1{fill:#fff;}</style></defs><g><polygon class="cls-1" points="340.81 501.96 142.59 501.96 142.48 516.06 340.81 516.06 340.81 501.96"></polygon><polygon class="cls-1" points="1383.83 501.96 1383.83 516.06 1582.05 516.06 1582.16 501.96 1383.83 501.96"></polygon></g><g><path class="cls-1" d="M461.96,507.02l-54.51-77.67v-.2h28.15l38.14,55.91h1.4l38.34-55.91h27.16v.2l-54.11,77.28v40.13h-24.56v-39.74Z"></path><path class="cls-1" d="M600.93,429.14h45.13l43.53,117.61h-25.36l-9.78-26.56h-62.3l-9.38,26.56h-25.36l43.53-117.61Zm-1.6,70.69h47.72l-17.97-49.52h-11.18l-18.57,49.52Z"></path><path class="cls-1" d="M722.54,488.05c0-33.55,24.16-61.5,67.29-61.5,19.97,0,35.54,6.39,45.73,14.18v23.96h-.2c-13.58-9.98-28.75-16.57-45.53-16.57-25.56,0-42.33,17.37-42.33,39.94,0,22.96,13.78,40.13,42.33,40.13,17.77,0,32.55-7.19,45.53-16.37h.2v24.16c-8.79,5.99-25.76,13.78-47.32,13.78-44.73,0-65.69-27.75-65.69-61.7Z"></path><path class="cls-1" d="M884.28,429.14h24.56v47.92h67.29v-47.92h24.36v117.61h-24.36v-48.72h-67.29v48.72h-24.56v-117.61Z"></path><path class="cls-1" d="M1091.74,450.71h-46.33l.8-21.57h115.21l.8,21.57h-46.33v96.04h-24.16v-96.04Z"></path><path class="cls-1" d="M1198.17,536.97v-23.56h.2c16.57,9.58,39.54,15.38,54.51,15.38,20.37,0,27.96-5.39,27.96-13.78,0-8.99-6.39-11.38-35.14-17.57-28.35-5.99-46.52-11.18-46.52-34.14,0-20.37,16.37-36.94,52.71-36.94,16.97,0,34.14,4.79,46.72,11.18v23.76h-.2c-13.98-7.99-31.35-13.78-48.32-13.78-17.17,0-26.16,5.39-26.16,13.78,.2,8.39,6.39,10.58,34.74,16.37,27.16,5.59,46.52,13.18,46.52,35.34,0,15.17-6.99,36.94-52.32,36.94-19.77,0-40.93-5.59-54.71-12.98Z"></path></g><g><path class="cls-1" d="M198.73,298.37v42.68c0,1.58-1.28,2.86-2.86,2.86H16.92c-1.58,0-2.86-1.28-2.86-2.86V31.5c0-1.58,1.28-2.86,2.86-2.86h52.92c1.58,0,2.86,1.28,2.86,2.86V292.64c0,1.58,1.28,2.86,2.86,2.86h120.29c1.58,0,2.86,1.28,2.86,2.86Z"></path><path class="cls-1" d="M318.2,343.91h-52.77c-1.68,0-3.05-1.37-3.05-3.05V31.69c0-1.68,1.37-3.05,3.05-3.05h52.77c1.68,0,3.05,1.37,3.05,3.05V340.86c0,1.68-1.37,3.05-3.05,3.05Z"></path><path class="cls-1" d="M679.25,31.46V341.08c0,1.56-1.27,2.83-2.83,2.83h-27.26c-4.65,0-8.54-.76-11.66-2.29-3.13-1.53-6.14-4.11-9.05-7.74l-158.85-202.82c-1.71-2.19-5.22-.85-5.04,1.92,.39,6.1,.59,11.87,.59,17.31v190.78c0,1.56-1.27,2.83-2.83,2.83h-46.02c-1.56,0-2.83-1.27-2.83-2.83V31.46c0-1.56,1.27-2.83,2.83-2.83h27.92c2.47,0,4.61,.11,6.43,.33,1.82,.22,3.41,.65,4.8,1.31,1.38,.65,2.72,1.6,4.03,2.83,1.31,1.24,2.76,2.87,4.36,4.91l159.5,203.69c1.72,2.19,5.24,.84,5.04-1.94-.13-1.92-.26-3.84-.37-5.74-.29-4.94-.44-9.52-.44-13.74V31.46c0-1.56,1.27-2.83,2.83-2.83h46.02c1.56,0,2.83,1.27,2.83,2.83Z"></path><path class="cls-1" d="M891.39,231.84c0,17.74-2.18,33.72-6.54,47.97-4.36,14.25-10.87,26.38-19.51,36.41-8.65,10.03-19.44,17.74-32.38,23.11-12.94,5.38-27.98,8.07-45.13,8.07-7.85,0-15.56-.47-23.11-1.42-6.79-.85-13.88-2.14-21.26-3.87-1.44-.34-2.42-1.68-2.31-3.15,.28-3.54,1.19-13.49,2.55-23.89,.54-4.18,1.63-8.21,2.62-14.37,.88-5.52,4.73-5.84,6.17-5.73,2.27,.18,8.42,1.42,13.7,2.22,3.78,.58,10.15,1.8,15.53,1.8,8.28,0,15.62-1.2,22.02-3.6,6.39-2.4,11.74-6.21,16.02-11.45,4.29-5.23,7.52-12.03,9.7-20.39,2.18-8.36,3.27-18.5,3.27-30.42V31.63c0-1.65,1.34-2.99,3-2.99h52.66c1.65,0,2.99,1.34,2.99,2.99V231.84Z"></path><path class="cls-1" d="M1039.21,78.07v81.89c0,1.53,1.24,2.77,2.77,2.77h104.78c1.53,0,2.77,1.24,2.77,2.77v39.59c0,1.53-1.24,2.77-2.77,2.77h-104.78c-1.53,0-2.77,1.24-2.77,2.77v83.63c0,1.53,1.24,2.77,2.77,2.77h134.43c1.53,0,2.77,1.24,2.77,2.77v41.33c0,1.53-1.24,2.77-2.77,2.77h-193.3c-1.53,0-2.77-1.24-2.77-2.77V31.41c0-1.53,1.24-2.77,2.77-2.77h193.3c1.53,0,2.77,1.24,2.77,2.77v41.11c0,1.53-1.24,2.77-2.77,2.77h-134.43c-1.53,0-2.77,1.24-2.77,2.77Z"></path><path class="cls-1" d="M1470.26,76.82h-89.39c-1.56,0-2.83,1.27-2.83,2.83V341.07c0,1.56-1.27,2.83-2.83,2.83h-52.98c-1.56,0-2.83-1.27-2.83-2.83V79.66c0-1.56-1.27-2.83-2.83-2.83h-89.39c-1.56,0-2.83-1.27-2.83-2.83V31.47c0-1.56,1.27-2.83,2.83-2.83h243.1c1.56,0,2.83,1.27,2.83,2.83v42.52c0,1.56-1.27,2.83-2.83,2.83Z"></path><path class="cls-1" d="M1753.73,76.82h-89.47c-1.54,0-2.79,1.25-2.79,2.79V341.11c0,1.54-1.25,2.79-2.79,2.79h-53.06c-1.54,0-2.79-1.25-2.79-2.79V79.62c0-1.54-1.25-2.79-2.79-2.79h-89.47c-1.54,0-2.79-1.25-2.79-2.79V31.43c0-1.54,1.25-2.79,2.79-2.79h243.18c1.54,0,2.79,1.25,2.79,2.79v42.6c0,1.54-1.25,2.79-2.79,2.79Z"></path></g></svg> 